solid Spreader_18AWG_Clip_3
   facet normal 0.000000e+00 1.000000e+00 -0.000000e+00
      outer loop
         vertex 4.375000e+00 4.500000e+00 2.150000e+00
         vertex 0.000000e+00 4.500000e+00 2.150000e+00
         vertex 4.375000e+00 4.500000e+00 5.850000e+00
      endloop
   endfacet
   facet normal 0.000000e+00 1.000000e+00 0.000000e+00
      outer loop
         vertex 4.375000e+00 4.500000e+00 5.850000e+00
         vertex 0.000000e+00 4.500000e+00 2.150000e+00
         vertex 0.000000e+00 4.500000e+00 5.850000e+00
      endloop
   endfacet
   facet normal -0.000000e+00 1.000000e+00 0.000000e+00
      outer loop
         vertex 0.000000e+00 2.000000e+00 8.000000e+00
         vertex 1.000000e+01 2.000000e+00 8.000000e+00
         vertex 0.000000e+00 2.000000e+00 5.850000e+00
      endloop
   endfacet
   facet normal 0.000000e+00 1.000000e+00 0.000000e+00
      outer loop
         vertex 0.000000e+00 2.000000e+00 5.850000e+00
         vertex 1.000000e+01 2.000000e+00 8.000000e+00
         vertex 1.000000e+01 2.000000e+00 5.850000e+00
      endloop
   endfacet
   facet normal 0.000000e+00 1.000000e+00 -0.000000e+00
      outer loop
         vertex 1.000000e+01 2.000000e+00 0.000000e+00
         vertex 0.000000e+00 2.000000e+00 0.000000e+00
         vertex 1.000000e+01 2.000000e+00 2.150000e+00
      endloop
   endfacet
   facet normal 0.000000e+00 1.000000e+00 0.000000e+00
      outer loop
         vertex 1.000000e+01 2.000000e+00 2.150000e+00
         vertex 0.000000e+00 2.000000e+00 0.000000e+00
         vertex 0.000000e+00 2.000000e+00 2.150000e+00
      endloop
   endfacet
   facet normal 1.000000e+00 0.000000e+00 0.000000e+00
      outer loop
         vertex 1.000000e+01 0.000000e+00 0.000000e+00
         vertex 1.000000e+01 2.000000e+00 0.000000e+00
         vertex 1.000000e+01 0.000000e+00 8.000000e+00
      endloop
   endfacet
   facet normal 1.000000e+00 0.000000e+00 0.000000e+00
      outer loop
         vertex 1.000000e+01 0.000000e+00 8.000000e+00
         vertex 1.000000e+01 2.000000e+00 0.000000e+00
         vertex 1.000000e+01 2.000000e+00 2.150000e+00
      endloop
   endfacet
   facet normal 1.000000e+00 0.000000e+00 0.000000e+00
      outer loop
         vertex 1.000000e+01 2.000000e+00 8.000000e+00
         vertex 1.000000e+01 0.000000e+00 8.000000e+00
         vertex 1.000000e+01 2.000000e+00 5.850000e+00
      endloop
   endfacet
   facet normal 1.000000e+00 0.000000e+00 0.000000e+00
      outer loop
         vertex 1.000000e+01 2.000000e+00 5.850000e+00
         vertex 1.000000e+01 0.000000e+00 8.000000e+00
         vertex 1.000000e+01 2.000000e+00 2.150000e+00
      endloop
   endfacet
   facet normal 1.000000e+00 -0.000000e+00 0.000000e+00
      outer loop
         vertex 1.000000e+01 2.000000e+00 5.850000e+00
         vertex 1.000000e+01 2.000000e+00 2.150000e+00
         vertex 1.000000e+01 4.500000e+00 5.850000e+00
      endloop
   endfacet
   facet normal 1.000000e+00 0.000000e+00 0.000000e+00
      outer loop
         vertex 1.000000e+01 4.500000e+00 5.850000e+00
         vertex 1.000000e+01 2.000000e+00 2.150000e+00
         vertex 1.000000e+01 4.500000e+00 2.150000e+00
      endloop
   endfacet
   facet normal 0.000000e+00 0.000000e+00 -1.000000e+00
      outer loop
         vertex 0.000000e+00 2.000000e+00 0.000000e+00
         vertex 1.000000e+01 2.000000e+00 0.000000e+00
         vertex 0.000000e+00 0.000000e+00 0.000000e+00
      endloop
   endfacet
   facet normal 0.000000e+00 0.000000e+00 -1.000000e+00
      outer loop
         vertex 0.000000e+00 0.000000e+00 0.000000e+00
         vertex 1.000000e+01 2.000000e+00 0.000000e+00
         vertex 1.000000e+01 0.000000e+00 0.000000e+00
      endloop
   endfacet
   facet normal -1.000000e+00 0.000000e+00 0.000000e+00
      outer loop
         vertex 0.000000e+00 0.000000e+00 8.000000e+00
         vertex 0.000000e+00 2.000000e+00 8.000000e+00
         vertex 0.000000e+00 0.000000e+00 0.000000e+00
      endloop
   endfacet
   facet normal -1.000000e+00 0.000000e+00 0.000000e+00
      outer loop
         vertex 0.000000e+00 0.000000e+00 0.000000e+00
         vertex 0.000000e+00 2.000000e+00 8.000000e+00
         vertex 0.000000e+00 2.000000e+00 5.850000e+00
      endloop
   endfacet
   facet normal -1.000000e+00 0.000000e+00 0.000000e+00
      outer loop
         vertex 0.000000e+00 2.000000e+00 0.000000e+00
         vertex 0.000000e+00 0.000000e+00 0.000000e+00
         vertex 0.000000e+00 2.000000e+00 2.150000e+00
      endloop
   endfacet
   facet normal -1.000000e+00 -0.000000e+00 0.000000e+00
      outer loop
         vertex 0.000000e+00 2.000000e+00 2.150000e+00
         vertex 0.000000e+00 0.000000e+00 0.000000e+00
         vertex 0.000000e+00 2.000000e+00 5.850000e+00
      endloop
   endfacet
   facet normal -1.000000e+00 0.000000e+00 0.000000e+00
      outer loop
         vertex 0.000000e+00 2.000000e+00 2.150000e+00
         vertex 0.000000e+00 2.000000e+00 5.850000e+00
         vertex 0.000000e+00 4.500000e+00 2.150000e+00
      endloop
   endfacet
   facet normal -1.000000e+00 0.000000e+00 0.000000e+00
      outer loop
         vertex 0.000000e+00 4.500000e+00 2.150000e+00
         vertex 0.000000e+00 2.000000e+00 5.850000e+00
         vertex 0.000000e+00 4.500000e+00 5.850000e+00
      endloop
   endfacet
   facet normal 0.000000e+00 0.000000e+00 1.000000e+00
      outer loop
         vertex 1.000000e+01 2.000000e+00 8.000000e+00
         vertex 0.000000e+00 2.000000e+00 8.000000e+00
         vertex 1.000000e+01 0.000000e+00 8.000000e+00
      endloop
   endfacet
   facet normal 0.000000e+00 0.000000e+00 1.000000e+00
      outer loop
         vertex 1.000000e+01 0.000000e+00 8.000000e+00
         vertex 0.000000e+00 2.000000e+00 8.000000e+00
         vertex 0.000000e+00 0.000000e+00 8.000000e+00
      endloop
   endfacet
   facet normal 0.000000e+00 -1.000000e+00 0.000000e+00
      outer loop
         vertex 0.000000e+00 0.000000e+00 8.000000e+00
         vertex 0.000000e+00 0.000000e+00 0.000000e+00
         vertex 1.000000e+01 0.000000e+00 8.000000e+00
      endloop
   endfacet
   facet normal 0.000000e+00 -1.000000e+00 -0.000000e+00
      outer loop
         vertex 1.000000e+01 0.000000e+00 8.000000e+00
         vertex 0.000000e+00 0.000000e+00 0.000000e+00
         vertex 1.000000e+01 0.000000e+00 0.000000e+00
      endloop
   endfacet
   facet normal 0.000000e+00 0.000000e+00 -1.000000e+00
      outer loop
         vertex 5.478778e+00 3.598258e+00 2.150000e+00
         vertex 5.541266e+00 3.687500e+00 2.150000e+00
         vertex 1.000000e+01 2.000000e+00 2.150000e+00
      endloop
   endfacet
   facet normal -0.000000e+00 0.000000e+00 -1.000000e+00
      outer loop
         vertex 4.384495e+00 3.891470e+00 2.150000e+00
         vertex 0.000000e+00 2.000000e+00 2.150000e+00
         vertex 4.375000e+00 4.000000e+00 2.150000e+00
      endloop
   endfacet
   facet normal -0.000000e+00 0.000000e+00 -1.000000e+00
      outer loop
         vertex 4.375000e+00 4.000000e+00 2.150000e+00
         vertex 0.000000e+00 2.000000e+00 2.150000e+00
         vertex 0.000000e+00 4.500000e+00 2.150000e+00
      endloop
   endfacet
   facet normal 0.000000e+00 0.000000e+00 -1.000000e+00
      outer loop
         vertex 4.375000e+00 4.000000e+00 2.150000e+00
         vertex 0.000000e+00 4.500000e+00 2.150000e+00
         vertex 4.375000e+00 4.500000e+00 2.150000e+00
      endloop
   endfacet
   facet normal 0.000000e+00 -0.000000e+00 -1.000000e+00
      outer loop
         vertex 4.384495e+00 3.891470e+00 2.150000e+00
         vertex 4.412692e+00 3.786237e+00 2.150000e+00
         vertex 0.000000e+00 2.000000e+00 2.150000e+00
      endloop
   endfacet
   facet normal 0.000000e+00 0.000000e+00 -1.000000e+00
      outer loop
         vertex 0.000000e+00 2.000000e+00 2.150000e+00
         vertex 4.412692e+00 3.786237e+00 2.150000e+00
         vertex 4.458734e+00 3.687500e+00 2.150000e+00
      endloop
   endfacet
   facet normal 0.000000e+00 0.000000e+00 -1.000000e+00
      outer loop
         vertex 0.000000e+00 2.000000e+00 2.150000e+00
         vertex 4.458734e+00 3.687500e+00 2.150000e+00
         vertex 4.521222e+00 3.598258e+00 2.150000e+00
      endloop
   endfacet
   facet normal 0.000000e+00 0.000000e+00 -1.000000e+00
      outer loop
         vertex 5.541266e+00 3.687500e+00 2.150000e+00
         vertex 5.587308e+00 3.786237e+00 2.150000e+00
         vertex 1.000000e+01 2.000000e+00 2.150000e+00
      endloop
   endfacet
   facet normal 0.000000e+00 0.000000e+00 -1.000000e+00
      outer loop
         vertex 1.000000e+01 2.000000e+00 2.150000e+00
         vertex 5.587308e+00 3.786237e+00 2.150000e+00
         vertex 5.615505e+00 3.891470e+00 2.150000e+00
      endloop
   endfacet
   facet normal 0.000000e+00 0.000000e+00 -1.000000e+00
      outer loop
         vertex 1.000000e+01 2.000000e+00 2.150000e+00
         vertex 5.615505e+00 3.891470e+00 2.150000e+00
         vertex 1.000000e+01 4.500000e+00 2.150000e+00
      endloop
   endfacet
   facet normal 0.000000e+00 0.000000e+00 -1.000000e+00
      outer loop
         vertex 1.000000e+01 4.500000e+00 2.150000e+00
         vertex 5.615505e+00 3.891470e+00 2.150000e+00
         vertex 5.625000e+00 4.000000e+00 2.150000e+00
      endloop
   endfacet
   facet normal -0.000000e+00 0.000000e+00 -1.000000e+00
      outer loop
         vertex 1.000000e+01 4.500000e+00 2.150000e+00
         vertex 5.625000e+00 4.000000e+00 2.150000e+00
         vertex 5.625000e+00 4.500000e+00 2.150000e+00
      endloop
   endfacet
   facet normal 0.000000e+00 -0.000000e+00 -1.000000e+00
      outer loop
         vertex 4.521222e+00 3.598258e+00 2.150000e+00
         vertex 4.598258e+00 3.521222e+00 2.150000e+00
         vertex 0.000000e+00 2.000000e+00 2.150000e+00
      endloop
   endfacet
   facet normal 0.000000e+00 0.000000e+00 -1.000000e+00
      outer loop
         vertex 0.000000e+00 2.000000e+00 2.150000e+00
         vertex 4.598258e+00 3.521222e+00 2.150000e+00
         vertex 4.687500e+00 3.458734e+00 2.150000e+00
      endloop
   endfacet
   facet normal 0.000000e+00 0.000000e+00 -1.000000e+00
      outer loop
         vertex 0.000000e+00 2.000000e+00 2.150000e+00
         vertex 4.687500e+00 3.458734e+00 2.150000e+00
         vertex 4.786237e+00 3.412692e+00 2.150000e+00
      endloop
   endfacet
   facet normal 0.000000e+00 -0.000000e+00 -1.000000e+00
      outer loop
         vertex 4.786237e+00 3.412692e+00 2.150000e+00
         vertex 4.891470e+00 3.384495e+00 2.150000e+00
         vertex 0.000000e+00 2.000000e+00 2.150000e+00
      endloop
   endfacet
   facet normal 0.000000e+00 0.000000e+00 -1.000000e+00
      outer loop
         vertex 0.000000e+00 2.000000e+00 2.150000e+00
         vertex 4.891470e+00 3.384495e+00 2.150000e+00
         vertex 5.000000e+00 3.375000e+00 2.150000e+00
      endloop
   endfacet
   facet normal 0.000000e+00 0.000000e+00 -1.000000e+00
      outer loop
         vertex 0.000000e+00 2.000000e+00 2.150000e+00
         vertex 5.000000e+00 3.375000e+00 2.150000e+00
         vertex 1.000000e+01 2.000000e+00 2.150000e+00
      endloop
   endfacet
   facet normal 0.000000e+00 0.000000e+00 -1.000000e+00
      outer loop
         vertex 1.000000e+01 2.000000e+00 2.150000e+00
         vertex 5.000000e+00 3.375000e+00 2.150000e+00
         vertex 5.108530e+00 3.384495e+00 2.150000e+00
      endloop
   endfacet
   facet normal 0.000000e+00 0.000000e+00 -1.000000e+00
      outer loop
         vertex 1.000000e+01 2.000000e+00 2.150000e+00
         vertex 5.108530e+00 3.384495e+00 2.150000e+00
         vertex 5.213762e+00 3.412692e+00 2.150000e+00
      endloop
   endfacet
   facet normal 0.000000e+00 0.000000e+00 -1.000000e+00
      outer loop
         vertex 5.213762e+00 3.412692e+00 2.150000e+00
         vertex 5.312500e+00 3.458734e+00 2.150000e+00
         vertex 1.000000e+01 2.000000e+00 2.150000e+00
      endloop
   endfacet
   facet normal 0.000000e+00 0.000000e+00 -1.000000e+00
      outer loop
         vertex 1.000000e+01 2.000000e+00 2.150000e+00
         vertex 5.312500e+00 3.458734e+00 2.150000e+00
         vertex 5.401742e+00 3.521222e+00 2.150000e+00
      endloop
   endfacet
   facet normal 0.000000e+00 0.000000e+00 -1.000000e+00
      outer loop
         vertex 1.000000e+01 2.000000e+00 2.150000e+00
         vertex 5.401742e+00 3.521222e+00 2.150000e+00
         vertex 5.478778e+00 3.598258e+00 2.150000e+00
      endloop
   endfacet
   facet normal -0.000000e+00 0.000000e+00 1.000000e+00
      outer loop
         vertex 5.615505e+00 3.891470e+00 5.850000e+00
         vertex 1.000000e+01 2.000000e+00 5.850000e+00
         vertex 5.625000e+00 4.000000e+00 5.850000e+00
      endloop
   endfacet
   facet normal -0.000000e+00 0.000000e+00 1.000000e+00
      outer loop
         vertex 5.625000e+00 4.000000e+00 5.850000e+00
         vertex 1.000000e+01 2.000000e+00 5.850000e+00
         vertex 1.000000e+01 4.500000e+00 5.850000e+00
      endloop
   endfacet
   facet normal 0.000000e+00 0.000000e+00 1.000000e+00
      outer loop
         vertex 5.625000e+00 4.000000e+00 5.850000e+00
         vertex 1.000000e+01 4.500000e+00 5.850000e+00
         vertex 5.625000e+00 4.500000e+00 5.850000e+00
      endloop
   endfacet
   facet normal 0.000000e+00 0.000000e+00 1.000000e+00
      outer loop
         vertex 4.521222e+00 3.598258e+00 5.850000e+00
         vertex 4.458734e+00 3.687500e+00 5.850000e+00
         vertex 0.000000e+00 2.000000e+00 5.850000e+00
      endloop
   endfacet
   facet normal 0.000000e+00 0.000000e+00 1.000000e+00
      outer loop
         vertex 5.615505e+00 3.891470e+00 5.850000e+00
         vertex 5.587308e+00 3.786237e+00 5.850000e+00
         vertex 1.000000e+01 2.000000e+00 5.850000e+00
      endloop
   endfacet
   facet normal 0.000000e+00 0.000000e+00 1.000000e+00
      outer loop
         vertex 1.000000e+01 2.000000e+00 5.850000e+00
         vertex 5.587308e+00 3.786237e+00 5.850000e+00
         vertex 5.541266e+00 3.687500e+00 5.850000e+00
      endloop
   endfacet
   facet normal 0.000000e+00 0.000000e+00 1.000000e+00
      outer loop
         vertex 1.000000e+01 2.000000e+00 5.850000e+00
         vertex 5.541266e+00 3.687500e+00 5.850000e+00
         vertex 5.478778e+00 3.598258e+00 5.850000e+00
      endloop
   endfacet
   facet normal 0.000000e+00 0.000000e+00 1.000000e+00
      outer loop
         vertex 4.458734e+00 3.687500e+00 5.850000e+00
         vertex 4.412692e+00 3.786237e+00 5.850000e+00
         vertex 0.000000e+00 2.000000e+00 5.850000e+00
      endloop
   endfacet
   facet normal 0.000000e+00 0.000000e+00 1.000000e+00
      outer loop
         vertex 0.000000e+00 2.000000e+00 5.850000e+00
         vertex 4.412692e+00 3.786237e+00 5.850000e+00
         vertex 4.384495e+00 3.891470e+00 5.850000e+00
      endloop
   endfacet
   facet normal 0.000000e+00 0.000000e+00 1.000000e+00
      outer loop
         vertex 0.000000e+00 2.000000e+00 5.850000e+00
         vertex 4.384495e+00 3.891470e+00 5.850000e+00
         vertex 0.000000e+00 4.500000e+00 5.850000e+00
      endloop
   endfacet
   facet normal 0.000000e+00 0.000000e+00 1.000000e+00
      outer loop
         vertex 0.000000e+00 4.500000e+00 5.850000e+00
         vertex 4.384495e+00 3.891470e+00 5.850000e+00
         vertex 4.375000e+00 4.000000e+00 5.850000e+00
      endloop
   endfacet
   facet normal -0.000000e+00 0.000000e+00 1.000000e+00
      outer loop
         vertex 0.000000e+00 4.500000e+00 5.850000e+00
         vertex 4.375000e+00 4.000000e+00 5.850000e+00
         vertex 4.375000e+00 4.500000e+00 5.850000e+00
      endloop
   endfacet
   facet normal 0.000000e+00 0.000000e+00 1.000000e+00
      outer loop
         vertex 4.786237e+00 3.412692e+00 5.850000e+00
         vertex 4.687500e+00 3.458734e+00 5.850000e+00
         vertex 0.000000e+00 2.000000e+00 5.850000e+00
      endloop
   endfacet
   facet normal 0.000000e+00 0.000000e+00 1.000000e+00
      outer loop
         vertex 0.000000e+00 2.000000e+00 5.850000e+00
         vertex 4.687500e+00 3.458734e+00 5.850000e+00
         vertex 4.598258e+00 3.521222e+00 5.850000e+00
      endloop
   endfacet
   facet normal 0.000000e+00 0.000000e+00 1.000000e+00
      outer loop
         vertex 0.000000e+00 2.000000e+00 5.850000e+00
         vertex 4.598258e+00 3.521222e+00 5.850000e+00
         vertex 4.521222e+00 3.598258e+00 5.850000e+00
      endloop
   endfacet
   facet normal 0.000000e+00 0.000000e+00 1.000000e+00
      outer loop
         vertex 5.478778e+00 3.598258e+00 5.850000e+00
         vertex 5.401742e+00 3.521222e+00 5.850000e+00
         vertex 1.000000e+01 2.000000e+00 5.850000e+00
      endloop
   endfacet
   facet normal 0.000000e+00 0.000000e+00 1.000000e+00
      outer loop
         vertex 1.000000e+01 2.000000e+00 5.850000e+00
         vertex 5.401742e+00 3.521222e+00 5.850000e+00
         vertex 5.312500e+00 3.458734e+00 5.850000e+00
      endloop
   endfacet
   facet normal 0.000000e+00 0.000000e+00 1.000000e+00
      outer loop
         vertex 1.000000e+01 2.000000e+00 5.850000e+00
         vertex 5.312500e+00 3.458734e+00 5.850000e+00
         vertex 5.213762e+00 3.412692e+00 5.850000e+00
      endloop
   endfacet
   facet normal 0.000000e+00 0.000000e+00 1.000000e+00
      outer loop
         vertex 5.213762e+00 3.412692e+00 5.850000e+00
         vertex 5.108530e+00 3.384495e+00 5.850000e+00
         vertex 1.000000e+01 2.000000e+00 5.850000e+00
      endloop
   endfacet
   facet normal 0.000000e+00 0.000000e+00 1.000000e+00
      outer loop
         vertex 1.000000e+01 2.000000e+00 5.850000e+00
         vertex 5.108530e+00 3.384495e+00 5.850000e+00
         vertex 5.000000e+00 3.375000e+00 5.850000e+00
      endloop
   endfacet
   facet normal 0.000000e+00 0.000000e+00 1.000000e+00
      outer loop
         vertex 1.000000e+01 2.000000e+00 5.850000e+00
         vertex 5.000000e+00 3.375000e+00 5.850000e+00
         vertex 0.000000e+00 2.000000e+00 5.850000e+00
      endloop
   endfacet
   facet normal 0.000000e+00 0.000000e+00 1.000000e+00
      outer loop
         vertex 0.000000e+00 2.000000e+00 5.850000e+00
         vertex 5.000000e+00 3.375000e+00 5.850000e+00
         vertex 4.891470e+00 3.384495e+00 5.850000e+00
      endloop
   endfacet
   facet normal 0.000000e+00 0.000000e+00 1.000000e+00
      outer loop
         vertex 0.000000e+00 2.000000e+00 5.850000e+00
         vertex 4.891470e+00 3.384495e+00 5.850000e+00
         vertex 4.786237e+00 3.412692e+00 5.850000e+00
      endloop
   endfacet
   facet normal -0.000000e+00 1.000000e+00 0.000000e+00
      outer loop
         vertex 5.625000e+00 4.500000e+00 5.850000e+00
         vertex 1.000000e+01 4.500000e+00 5.850000e+00
         vertex 5.625000e+00 4.500000e+00 2.150000e+00
      endloop
   endfacet
   facet normal 0.000000e+00 1.000000e+00 0.000000e+00
      outer loop
         vertex 5.625000e+00 4.500000e+00 2.150000e+00
         vertex 1.000000e+01 4.500000e+00 5.850000e+00
         vertex 1.000000e+01 4.500000e+00 2.150000e+00
      endloop
   endfacet
   facet normal 9.961947e-01 8.715534e-02 -0.000000e+00
      outer loop
         vertex 4.375000e+00 4.000000e+00 2.150000e+00
         vertex 4.375000e+00 4.000000e+00 5.850000e+00
         vertex 4.384495e+00 3.891470e+00 2.150000e+00
      endloop
   endfacet
   facet normal 9.961947e-01 8.715534e-02 -0.000000e+00
      outer loop
         vertex 4.384495e+00 3.891470e+00 2.150000e+00
         vertex 4.375000e+00 4.000000e+00 5.850000e+00
         vertex 4.384495e+00 3.891470e+00 5.850000e+00
      endloop
   endfacet
   facet normal 9.659258e-01 2.588191e-01 -0.000000e+00
      outer loop
         vertex 4.384495e+00 3.891470e+00 2.150000e+00
         vertex 4.384495e+00 3.891470e+00 5.850000e+00
         vertex 4.412692e+00 3.786237e+00 2.150000e+00
      endloop
   endfacet
   facet normal 9.659258e-01 2.588191e-01 -0.000000e+00
      outer loop
         vertex 4.412692e+00 3.786237e+00 2.150000e+00
         vertex 4.384495e+00 3.891470e+00 5.850000e+00
         vertex 4.412692e+00 3.786237e+00 5.850000e+00
      endloop
   endfacet
   facet normal 9.063077e-01 4.226183e-01 -0.000000e+00
      outer loop
         vertex 4.412692e+00 3.786237e+00 2.150000e+00
         vertex 4.412692e+00 3.786237e+00 5.850000e+00
         vertex 4.458734e+00 3.687500e+00 2.150000e+00
      endloop
   endfacet
   facet normal 9.063077e-01 4.226183e-01 -0.000000e+00
      outer loop
         vertex 4.458734e+00 3.687500e+00 2.150000e+00
         vertex 4.412692e+00 3.786237e+00 5.850000e+00
         vertex 4.458734e+00 3.687500e+00 5.850000e+00
      endloop
   endfacet
   facet normal 8.191523e-01 5.735760e-01 -0.000000e+00
      outer loop
         vertex 4.458734e+00 3.687500e+00 2.150000e+00
         vertex 4.458734e+00 3.687500e+00 5.850000e+00
         vertex 4.521222e+00 3.598258e+00 2.150000e+00
      endloop
   endfacet
   facet normal 8.191523e-01 5.735760e-01 -0.000000e+00
      outer loop
         vertex 4.521222e+00 3.598258e+00 2.150000e+00
         vertex 4.458734e+00 3.687500e+00 5.850000e+00
         vertex 4.521222e+00 3.598258e+00 5.850000e+00
      endloop
   endfacet
   facet normal 7.071068e-01 7.071068e-01 -0.000000e+00
      outer loop
         vertex 4.521222e+00 3.598258e+00 2.150000e+00
         vertex 4.521222e+00 3.598258e+00 5.850000e+00
         vertex 4.598258e+00 3.521222e+00 2.150000e+00
      endloop
   endfacet
   facet normal 7.071068e-01 7.071068e-01 -0.000000e+00
      outer loop
         vertex 4.598258e+00 3.521222e+00 2.150000e+00
         vertex 4.521222e+00 3.598258e+00 5.850000e+00
         vertex 4.598258e+00 3.521222e+00 5.850000e+00
      endloop
   endfacet
   facet normal 5.735759e-01 8.191524e-01 -0.000000e+00
      outer loop
         vertex 4.598258e+00 3.521222e+00 2.150000e+00
         vertex 4.598258e+00 3.521222e+00 5.850000e+00
         vertex 4.687500e+00 3.458734e+00 2.150000e+00
      endloop
   endfacet
   facet normal 5.735759e-01 8.191524e-01 -0.000000e+00
      outer loop
         vertex 4.687500e+00 3.458734e+00 2.150000e+00
         vertex 4.598258e+00 3.521222e+00 5.850000e+00
         vertex 4.687500e+00 3.458734e+00 5.850000e+00
      endloop
   endfacet
   facet normal 4.226184e-01 9.063077e-01 -0.000000e+00
      outer loop
         vertex 4.687500e+00 3.458734e+00 2.150000e+00
         vertex 4.687500e+00 3.458734e+00 5.850000e+00
         vertex 4.786237e+00 3.412692e+00 2.150000e+00
      endloop
   endfacet
   facet normal 4.226184e-01 9.063077e-01 -0.000000e+00
      outer loop
         vertex 4.786237e+00 3.412692e+00 2.150000e+00
         vertex 4.687500e+00 3.458734e+00 5.850000e+00
         vertex 4.786237e+00 3.412692e+00 5.850000e+00
      endloop
   endfacet
   facet normal 2.588190e-01 9.659258e-01 -0.000000e+00
      outer loop
         vertex 4.786237e+00 3.412692e+00 2.150000e+00
         vertex 4.786237e+00 3.412692e+00 5.850000e+00
         vertex 4.891470e+00 3.384495e+00 2.150000e+00
      endloop
   endfacet
   facet normal 2.588190e-01 9.659258e-01 -0.000000e+00
      outer loop
         vertex 4.891470e+00 3.384495e+00 2.150000e+00
         vertex 4.786237e+00 3.412692e+00 5.850000e+00
         vertex 4.891470e+00 3.384495e+00 5.850000e+00
      endloop
   endfacet
   facet normal 8.715494e-02 9.961948e-01 -0.000000e+00
      outer loop
         vertex 4.891470e+00 3.384495e+00 2.150000e+00
         vertex 4.891470e+00 3.384495e+00 5.850000e+00
         vertex 5.000000e+00 3.375000e+00 2.150000e+00
      endloop
   endfacet
   facet normal 8.715494e-02 9.961948e-01 -0.000000e+00
      outer loop
         vertex 5.000000e+00 3.375000e+00 2.150000e+00
         vertex 4.891470e+00 3.384495e+00 5.850000e+00
         vertex 5.000000e+00 3.375000e+00 5.850000e+00
      endloop
   endfacet
   facet normal -8.715494e-02 9.961948e-01 0.000000e+00
      outer loop
         vertex 5.000000e+00 3.375000e+00 2.150000e+00
         vertex 5.000000e+00 3.375000e+00 5.850000e+00
         vertex 5.108530e+00 3.384495e+00 2.150000e+00
      endloop
   endfacet
   facet normal -8.715494e-02 9.961948e-01 0.000000e+00
      outer loop
         vertex 5.108530e+00 3.384495e+00 2.150000e+00
         vertex 5.000000e+00 3.375000e+00 5.850000e+00
         vertex 5.108530e+00 3.384495e+00 5.850000e+00
      endloop
   endfacet
   facet normal -2.588190e-01 9.659258e-01 0.000000e+00
      outer loop
         vertex 5.108530e+00 3.384495e+00 2.150000e+00
         vertex 5.108530e+00 3.384495e+00 5.850000e+00
         vertex 5.213762e+00 3.412692e+00 2.150000e+00
      endloop
   endfacet
   facet normal -2.588190e-01 9.659258e-01 0.000000e+00
      outer loop
         vertex 5.213762e+00 3.412692e+00 2.150000e+00
         vertex 5.108530e+00 3.384495e+00 5.850000e+00
         vertex 5.213762e+00 3.412692e+00 5.850000e+00
      endloop
   endfacet
   facet normal -4.226184e-01 9.063077e-01 0.000000e+00
      outer loop
         vertex 5.213762e+00 3.412692e+00 2.150000e+00
         vertex 5.213762e+00 3.412692e+00 5.850000e+00
         vertex 5.312500e+00 3.458734e+00 2.150000e+00
      endloop
   endfacet
   facet normal -4.226184e-01 9.063077e-01 0.000000e+00
      outer loop
         vertex 5.312500e+00 3.458734e+00 2.150000e+00
         vertex 5.213762e+00 3.412692e+00 5.850000e+00
         vertex 5.312500e+00 3.458734e+00 5.850000e+00
      endloop
   endfacet
   facet normal -5.735759e-01 8.191524e-01 0.000000e+00
      outer loop
         vertex 5.312500e+00 3.458734e+00 2.150000e+00
         vertex 5.312500e+00 3.458734e+00 5.850000e+00
         vertex 5.401742e+00 3.521222e+00 2.150000e+00
      endloop
   endfacet
   facet normal -5.735759e-01 8.191524e-01 0.000000e+00
      outer loop
         vertex 5.401742e+00 3.521222e+00 2.150000e+00
         vertex 5.312500e+00 3.458734e+00 5.850000e+00
         vertex 5.401742e+00 3.521222e+00 5.850000e+00
      endloop
   endfacet
   facet normal -7.071068e-01 7.071068e-01 0.000000e+00
      outer loop
         vertex 5.401742e+00 3.521222e+00 2.150000e+00
         vertex 5.401742e+00 3.521222e+00 5.850000e+00
         vertex 5.478778e+00 3.598258e+00 2.150000e+00
      endloop
   endfacet
   facet normal -7.071068e-01 7.071068e-01 0.000000e+00
      outer loop
         vertex 5.478778e+00 3.598258e+00 2.150000e+00
         vertex 5.401742e+00 3.521222e+00 5.850000e+00
         vertex 5.478778e+00 3.598258e+00 5.850000e+00
      endloop
   endfacet
   facet normal -8.191523e-01 5.735760e-01 0.000000e+00
      outer loop
         vertex 5.478778e+00 3.598258e+00 2.150000e+00
         vertex 5.478778e+00 3.598258e+00 5.850000e+00
         vertex 5.541266e+00 3.687500e+00 2.150000e+00
      endloop
   endfacet
   facet normal -8.191523e-01 5.735760e-01 0.000000e+00
      outer loop
         vertex 5.541266e+00 3.687500e+00 2.150000e+00
         vertex 5.478778e+00 3.598258e+00 5.850000e+00
         vertex 5.541266e+00 3.687500e+00 5.850000e+00
      endloop
   endfacet
   facet normal -9.063077e-01 4.226183e-01 0.000000e+00
      outer loop
         vertex 5.541266e+00 3.687500e+00 2.150000e+00
         vertex 5.541266e+00 3.687500e+00 5.850000e+00
         vertex 5.587308e+00 3.786237e+00 2.150000e+00
      endloop
   endfacet
   facet normal -9.063077e-01 4.226183e-01 0.000000e+00
      outer loop
         vertex 5.587308e+00 3.786237e+00 2.150000e+00
         vertex 5.541266e+00 3.687500e+00 5.850000e+00
         vertex 5.587308e+00 3.786237e+00 5.850000e+00
      endloop
   endfacet
   facet normal -9.659258e-01 2.588191e-01 0.000000e+00
      outer loop
         vertex 5.587308e+00 3.786237e+00 2.150000e+00
         vertex 5.587308e+00 3.786237e+00 5.850000e+00
         vertex 5.615505e+00 3.891470e+00 2.150000e+00
      endloop
   endfacet
   facet normal -9.659258e-01 2.588191e-01 0.000000e+00
      outer loop
         vertex 5.615505e+00 3.891470e+00 2.150000e+00
         vertex 5.587308e+00 3.786237e+00 5.850000e+00
         vertex 5.615505e+00 3.891470e+00 5.850000e+00
      endloop
   endfacet
   facet normal -9.961947e-01 8.715534e-02 0.000000e+00
      outer loop
         vertex 5.615505e+00 3.891470e+00 2.150000e+00
         vertex 5.615505e+00 3.891470e+00 5.850000e+00
         vertex 5.625000e+00 4.000000e+00 2.150000e+00
      endloop
   endfacet
   facet normal -9.961947e-01 8.715534e-02 0.000000e+00
      outer loop
         vertex 5.625000e+00 4.000000e+00 2.150000e+00
         vertex 5.615505e+00 3.891470e+00 5.850000e+00
         vertex 5.625000e+00 4.000000e+00 5.850000e+00
      endloop
   endfacet
   facet normal 1.000000e+00 0.000000e+00 0.000000e+00
      outer loop
         vertex 4.375000e+00 4.500000e+00 5.850000e+00
         vertex 4.375000e+00 4.000000e+00 5.850000e+00
         vertex 4.375000e+00 4.500000e+00 2.150000e+00
      endloop
   endfacet
   facet normal 1.000000e+00 0.000000e+00 0.000000e+00
      outer loop
         vertex 4.375000e+00 4.500000e+00 2.150000e+00
         vertex 4.375000e+00 4.000000e+00 5.850000e+00
         vertex 4.375000e+00 4.000000e+00 2.150000e+00
      endloop
   endfacet
   facet normal -1.000000e+00 0.000000e+00 0.000000e+00
      outer loop
         vertex 5.625000e+00 4.000000e+00 5.850000e+00
         vertex 5.625000e+00 4.500000e+00 5.850000e+00
         vertex 5.625000e+00 4.000000e+00 2.150000e+00
      endloop
   endfacet
   facet normal -1.000000e+00 0.000000e+00 0.000000e+00
      outer loop
         vertex 5.625000e+00 4.000000e+00 2.150000e+00
         vertex 5.625000e+00 4.500000e+00 5.850000e+00
         vertex 5.625000e+00 4.500000e+00 2.150000e+00
      endloop
   endfacet
endsolid