solid Spreader_3inch_4b
   facet normal 0.000000e+00 0.000000e+00 1.000000e+00
      outer loop
         vertex 6.000000e+00 2.000000e+00 5.850000e+00
         vertex 5.739528e+00 2.022788e+00 5.850000e+00
         vertex 6.796790e-16 2.000000e+00 5.850000e+00
      endloop
   endfacet
   facet normal 0.000000e+00 0.000000e+00 1.000000e+00
      outer loop
         vertex 6.796790e-16 2.000000e+00 5.850000e+00
         vertex 5.739528e+00 2.022788e+00 5.850000e+00
         vertex 5.486970e+00 2.090461e+00 5.850000e+00
      endloop
   endfacet
   facet normal 0.000000e+00 0.000000e+00 1.000000e+00
      outer loop
         vertex 6.796790e-16 2.000000e+00 5.850000e+00
         vertex 5.486970e+00 2.090461e+00 5.850000e+00
         vertex 5.250000e+00 2.200962e+00 5.850000e+00
      endloop
   endfacet
   facet normal 0.000000e+00 0.000000e+00 1.000000e+00
      outer loop
         vertex 5.250000e+00 2.200962e+00 5.850000e+00
         vertex 5.035819e+00 2.350933e+00 5.850000e+00
         vertex 6.796790e-16 2.000000e+00 5.850000e+00
      endloop
   endfacet
   facet normal 0.000000e+00 0.000000e+00 1.000000e+00
      outer loop
         vertex 6.796790e-16 2.000000e+00 5.850000e+00
         vertex 5.035819e+00 2.350933e+00 5.850000e+00
         vertex 4.850933e+00 2.535819e+00 5.850000e+00
      endloop
   endfacet
   facet normal 0.000000e+00 0.000000e+00 1.000000e+00
      outer loop
         vertex 6.796790e-16 2.000000e+00 5.850000e+00
         vertex 4.850933e+00 2.535819e+00 5.850000e+00
         vertex 4.700962e+00 2.750000e+00 5.850000e+00
      endloop
   endfacet
   facet normal 0.000000e+00 0.000000e+00 1.000000e+00
      outer loop
         vertex 4.700962e+00 2.750000e+00 5.850000e+00
         vertex 4.590461e+00 2.986970e+00 5.850000e+00
         vertex 6.796790e-16 2.000000e+00 5.850000e+00
      endloop
   endfacet
   facet normal 0.000000e+00 0.000000e+00 1.000000e+00
      outer loop
         vertex 6.796790e-16 2.000000e+00 5.850000e+00
         vertex 4.590461e+00 2.986970e+00 5.850000e+00
         vertex 4.522788e+00 3.239528e+00 5.850000e+00
      endloop
   endfacet
   facet normal 0.000000e+00 0.000000e+00 1.000000e+00
      outer loop
         vertex 6.796790e-16 2.000000e+00 5.850000e+00
         vertex 4.522788e+00 3.239528e+00 5.850000e+00
         vertex 6.796790e-16 4.500000e+00 5.850000e+00
      endloop
   endfacet
   facet normal 0.000000e+00 0.000000e+00 1.000000e+00
      outer loop
         vertex 6.796790e-16 4.500000e+00 5.850000e+00
         vertex 4.522788e+00 3.239528e+00 5.850000e+00
         vertex 4.500000e+00 3.500000e+00 5.850000e+00
      endloop
   endfacet
   facet normal -0.000000e+00 0.000000e+00 1.000000e+00
      outer loop
         vertex 6.796790e-16 4.500000e+00 5.850000e+00
         vertex 4.500000e+00 3.500000e+00 5.850000e+00
         vertex 4.500000e+00 4.500000e+00 5.850000e+00
      endloop
   endfacet
   facet normal 0.000000e+00 -0.000000e+00 -1.000000e+00
      outer loop
         vertex 5.739528e+00 2.022788e+00 2.150000e+00
         vertex 6.000000e+00 2.000000e+00 2.150000e+00
         vertex 6.796790e-16 2.000000e+00 2.150000e+00
      endloop
   endfacet
   facet normal 0.000000e+00 -0.000000e+00 -1.000000e+00
      outer loop
         vertex 4.522788e+00 3.239528e+00 2.150000e+00
         vertex 4.590461e+00 2.986970e+00 2.150000e+00
         vertex 6.796790e-16 2.000000e+00 2.150000e+00
      endloop
   endfacet
   facet normal 0.000000e+00 -0.000000e+00 -1.000000e+00
      outer loop
         vertex 4.590461e+00 2.986970e+00 2.150000e+00
         vertex 4.700962e+00 2.750000e+00 2.150000e+00
         vertex 6.796790e-16 2.000000e+00 2.150000e+00
      endloop
   endfacet
   facet normal 0.000000e+00 0.000000e+00 -1.000000e+00
      outer loop
         vertex 6.796790e-16 2.000000e+00 2.150000e+00
         vertex 4.700962e+00 2.750000e+00 2.150000e+00
         vertex 4.850933e+00 2.535819e+00 2.150000e+00
      endloop
   endfacet
   facet normal 0.000000e+00 0.000000e+00 -1.000000e+00
      outer loop
         vertex 6.796790e-16 2.000000e+00 2.150000e+00
         vertex 4.850933e+00 2.535819e+00 2.150000e+00
         vertex 5.035819e+00 2.350933e+00 2.150000e+00
      endloop
   endfacet
   facet normal 0.000000e+00 -0.000000e+00 -1.000000e+00
      outer loop
         vertex 5.035819e+00 2.350933e+00 2.150000e+00
         vertex 5.250000e+00 2.200962e+00 2.150000e+00
         vertex 6.796790e-16 2.000000e+00 2.150000e+00
      endloop
   endfacet
   facet normal 0.000000e+00 0.000000e+00 -1.000000e+00
      outer loop
         vertex 6.796790e-16 2.000000e+00 2.150000e+00
         vertex 5.250000e+00 2.200962e+00 2.150000e+00
         vertex 5.486970e+00 2.090461e+00 2.150000e+00
      endloop
   endfacet
   facet normal 0.000000e+00 0.000000e+00 -1.000000e+00
      outer loop
         vertex 6.796790e-16 2.000000e+00 2.150000e+00
         vertex 5.486970e+00 2.090461e+00 2.150000e+00
         vertex 5.739528e+00 2.022788e+00 2.150000e+00
      endloop
   endfacet
   facet normal -0.000000e+00 0.000000e+00 -1.000000e+00
      outer loop
         vertex 4.522788e+00 3.239528e+00 2.150000e+00
         vertex 6.796790e-16 2.000000e+00 2.150000e+00
         vertex 4.500000e+00 3.500000e+00 2.150000e+00
      endloop
   endfacet
   facet normal -0.000000e+00 0.000000e+00 -1.000000e+00
      outer loop
         vertex 4.500000e+00 3.500000e+00 2.150000e+00
         vertex 6.796790e-16 2.000000e+00 2.150000e+00
         vertex 0.000000e+00 4.500000e+00 2.150000e+00
      endloop
   endfacet
   facet normal 0.000000e+00 0.000000e+00 -1.000000e+00
      outer loop
         vertex 4.500000e+00 3.500000e+00 2.150000e+00
         vertex 0.000000e+00 4.500000e+00 2.150000e+00
         vertex 4.500000e+00 4.500000e+00 2.150000e+00
      endloop
   endfacet
   facet normal 0.000000e+00 1.000000e+00 -0.000000e+00
      outer loop
         vertex 4.500000e+00 4.500000e+00 2.150000e+00
         vertex 0.000000e+00 4.500000e+00 2.150000e+00
         vertex 4.500000e+00 4.500000e+00 5.850000e+00
      endloop
   endfacet
   facet normal 0.000000e+00 1.000000e+00 0.000000e+00
      outer loop
         vertex 4.500000e+00 4.500000e+00 5.850000e+00
         vertex 0.000000e+00 4.500000e+00 2.150000e+00
         vertex 6.796790e-16 4.500000e+00 5.850000e+00
      endloop
   endfacet
   facet normal 0.000000e+00 1.000000e+00 0.000000e+00
      outer loop
         vertex 6.796790e-16 2.000000e+00 0.000000e+00
         vertex 6.796790e-16 2.000000e+00 2.150000e+00
         vertex 1.200000e+01 2.000000e+00 0.000000e+00
      endloop
   endfacet
   facet normal 0.000000e+00 1.000000e+00 0.000000e+00
      outer loop
         vertex 1.200000e+01 2.000000e+00 0.000000e+00
         vertex 6.796790e-16 2.000000e+00 2.150000e+00
         vertex 6.000000e+00 2.000000e+00 2.150000e+00
      endloop
   endfacet
   facet normal 0.000000e+00 1.000000e+00 -0.000000e+00
      outer loop
         vertex 1.200000e+01 2.000000e+00 0.000000e+00
         vertex 6.000000e+00 2.000000e+00 2.150000e+00
         vertex 1.200000e+01 2.000000e+00 2.150000e+00
      endloop
   endfacet
   facet normal 0.000000e+00 1.000000e+00 0.000000e+00
      outer loop
         vertex 6.796790e-16 2.000000e+00 5.850000e+00
         vertex 6.796790e-16 2.000000e+00 8.000000e+00
         vertex 6.000000e+00 2.000000e+00 5.850000e+00
      endloop
   endfacet
   facet normal 0.000000e+00 1.000000e+00 -0.000000e+00
      outer loop
         vertex 6.000000e+00 2.000000e+00 5.850000e+00
         vertex 6.796790e-16 2.000000e+00 8.000000e+00
         vertex 1.200000e+01 2.000000e+00 8.000000e+00
      endloop
   endfacet
   facet normal 0.000000e+00 1.000000e+00 0.000000e+00
      outer loop
         vertex 6.000000e+00 2.000000e+00 5.850000e+00
         vertex 1.200000e+01 2.000000e+00 8.000000e+00
         vertex 1.200000e+01 2.000000e+00 5.850000e+00
      endloop
   endfacet
   facet normal -1.000000e+00 0.000000e+00 0.000000e+00
      outer loop
         vertex 6.796790e-16 0.000000e+00 8.000000e+00
         vertex 6.796790e-16 2.000000e+00 8.000000e+00
         vertex 6.796790e-16 0.000000e+00 0.000000e+00
      endloop
   endfacet
   facet normal -1.000000e+00 0.000000e+00 0.000000e+00
      outer loop
         vertex 6.796790e-16 0.000000e+00 0.000000e+00
         vertex 6.796790e-16 2.000000e+00 8.000000e+00
         vertex 6.796790e-16 2.000000e+00 5.850000e+00
      endloop
   endfacet
   facet normal -1.000000e+00 0.000000e+00 0.000000e+00
      outer loop
         vertex 6.796790e-16 2.000000e+00 0.000000e+00
         vertex 6.796790e-16 0.000000e+00 0.000000e+00
         vertex 6.796790e-16 2.000000e+00 2.150000e+00
      endloop
   endfacet
   facet normal -1.000000e+00 -0.000000e+00 0.000000e+00
      outer loop
         vertex 6.796790e-16 2.000000e+00 2.150000e+00
         vertex 6.796790e-16 0.000000e+00 0.000000e+00
         vertex 6.796790e-16 2.000000e+00 5.850000e+00
      endloop
   endfacet
   facet normal -1.000000e+00 0.000000e+00 0.000000e+00
      outer loop
         vertex 6.796790e-16 2.000000e+00 2.150000e+00
         vertex 6.796790e-16 2.000000e+00 5.850000e+00
         vertex 6.796790e-16 4.500000e+00 2.150000e+00
      endloop
   endfacet
   facet normal -1.000000e+00 0.000000e+00 0.000000e+00
      outer loop
         vertex 6.796790e-16 4.500000e+00 2.150000e+00
         vertex 6.796790e-16 2.000000e+00 5.850000e+00
         vertex 6.796790e-16 4.500000e+00 5.850000e+00
      endloop
   endfacet
   facet normal 0.000000e+00 0.000000e+00 1.000000e+00
      outer loop
         vertex 1.200000e+01 2.000000e+00 8.000000e+00
         vertex 6.796790e-16 2.000000e+00 8.000000e+00
         vertex 1.200000e+01 0.000000e+00 8.000000e+00
      endloop
   endfacet
   facet normal 0.000000e+00 0.000000e+00 1.000000e+00
      outer loop
         vertex 1.200000e+01 0.000000e+00 8.000000e+00
         vertex 6.796790e-16 2.000000e+00 8.000000e+00
         vertex 6.796790e-16 0.000000e+00 8.000000e+00
      endloop
   endfacet
   facet normal 1.000000e+00 0.000000e+00 0.000000e+00
      outer loop
         vertex 1.200000e+01 0.000000e+00 0.000000e+00
         vertex 1.200000e+01 2.000000e+00 0.000000e+00
         vertex 1.200000e+01 0.000000e+00 8.000000e+00
      endloop
   endfacet
   facet normal 1.000000e+00 0.000000e+00 0.000000e+00
      outer loop
         vertex 1.200000e+01 0.000000e+00 8.000000e+00
         vertex 1.200000e+01 2.000000e+00 0.000000e+00
         vertex 1.200000e+01 2.000000e+00 2.150000e+00
      endloop
   endfacet
   facet normal 1.000000e+00 0.000000e+00 0.000000e+00
      outer loop
         vertex 1.200000e+01 2.000000e+00 8.000000e+00
         vertex 1.200000e+01 0.000000e+00 8.000000e+00
         vertex 1.200000e+01 2.000000e+00 5.850000e+00
      endloop
   endfacet
   facet normal 1.000000e+00 0.000000e+00 0.000000e+00
      outer loop
         vertex 1.200000e+01 2.000000e+00 5.850000e+00
         vertex 1.200000e+01 0.000000e+00 8.000000e+00
         vertex 1.200000e+01 2.000000e+00 2.150000e+00
      endloop
   endfacet
   facet normal 1.000000e+00 -0.000000e+00 0.000000e+00
      outer loop
         vertex 1.200000e+01 2.000000e+00 5.850000e+00
         vertex 1.200000e+01 2.000000e+00 2.150000e+00
         vertex 1.200000e+01 4.500000e+00 5.850000e+00
      endloop
   endfacet
   facet normal 1.000000e+00 0.000000e+00 0.000000e+00
      outer loop
         vertex 1.200000e+01 4.500000e+00 5.850000e+00
         vertex 1.200000e+01 2.000000e+00 2.150000e+00
         vertex 1.200000e+01 4.500000e+00 2.150000e+00
      endloop
   endfacet
   facet normal 0.000000e+00 0.000000e+00 -1.000000e+00
      outer loop
         vertex 6.796790e-16 2.000000e+00 0.000000e+00
         vertex 1.200000e+01 2.000000e+00 0.000000e+00
         vertex 6.796790e-16 0.000000e+00 0.000000e+00
      endloop
   endfacet
   facet normal 0.000000e+00 0.000000e+00 -1.000000e+00
      outer loop
         vertex 6.796790e-16 0.000000e+00 0.000000e+00
         vertex 1.200000e+01 2.000000e+00 0.000000e+00
         vertex 1.200000e+01 0.000000e+00 0.000000e+00
      endloop
   endfacet
   facet normal 0.000000e+00 -1.000000e+00 0.000000e+00
      outer loop
         vertex 1.200000e+01 0.000000e+00 0.000000e+00
         vertex 1.200000e+01 0.000000e+00 8.000000e+00
         vertex 6.796790e-16 0.000000e+00 0.000000e+00
      endloop
   endfacet
   facet normal 0.000000e+00 -1.000000e+00 0.000000e+00
      outer loop
         vertex 6.796790e-16 0.000000e+00 0.000000e+00
         vertex 1.200000e+01 0.000000e+00 8.000000e+00
         vertex 6.796790e-16 0.000000e+00 8.000000e+00
      endloop
   endfacet
   facet normal 0.000000e+00 0.000000e+00 1.000000e+00
      outer loop
         vertex 1.200000e+01 4.500000e+00 5.850000e+00
         vertex 7.500000e+00 4.500000e+00 5.850000e+00
         vertex 7.500000e+00 3.500000e+00 5.850000e+00
      endloop
   endfacet
   facet normal 0.000000e+00 0.000000e+00 1.000000e+00
      outer loop
         vertex 7.409539e+00 2.986970e+00 5.850000e+00
         vertex 7.299038e+00 2.750000e+00 5.850000e+00
         vertex 1.200000e+01 2.000000e+00 5.850000e+00
      endloop
   endfacet
   facet normal 0.000000e+00 0.000000e+00 1.000000e+00
      outer loop
         vertex 1.200000e+01 4.500000e+00 5.850000e+00
         vertex 7.500000e+00 3.500000e+00 5.850000e+00
         vertex 1.200000e+01 2.000000e+00 5.850000e+00
      endloop
   endfacet
   facet normal 0.000000e+00 0.000000e+00 1.000000e+00
      outer loop
         vertex 1.200000e+01 2.000000e+00 5.850000e+00
         vertex 7.500000e+00 3.500000e+00 5.850000e+00
         vertex 7.477212e+00 3.239528e+00 5.850000e+00
      endloop
   endfacet
   facet normal 0.000000e+00 0.000000e+00 1.000000e+00
      outer loop
         vertex 1.200000e+01 2.000000e+00 5.850000e+00
         vertex 7.477212e+00 3.239528e+00 5.850000e+00
         vertex 7.409539e+00 2.986970e+00 5.850000e+00
      endloop
   endfacet
   facet normal 0.000000e+00 0.000000e+00 1.000000e+00
      outer loop
         vertex 7.299038e+00 2.750000e+00 5.850000e+00
         vertex 7.149067e+00 2.535819e+00 5.850000e+00
         vertex 1.200000e+01 2.000000e+00 5.850000e+00
      endloop
   endfacet
   facet normal 0.000000e+00 0.000000e+00 1.000000e+00
      outer loop
         vertex 1.200000e+01 2.000000e+00 5.850000e+00
         vertex 7.149067e+00 2.535819e+00 5.850000e+00
         vertex 6.964182e+00 2.350933e+00 5.850000e+00
      endloop
   endfacet
   facet normal 0.000000e+00 0.000000e+00 1.000000e+00
      outer loop
         vertex 1.200000e+01 2.000000e+00 5.850000e+00
         vertex 6.964182e+00 2.350933e+00 5.850000e+00
         vertex 6.750000e+00 2.200962e+00 5.850000e+00
      endloop
   endfacet
   facet normal 0.000000e+00 0.000000e+00 1.000000e+00
      outer loop
         vertex 6.750000e+00 2.200962e+00 5.850000e+00
         vertex 6.513030e+00 2.090461e+00 5.850000e+00
         vertex 1.200000e+01 2.000000e+00 5.850000e+00
      endloop
   endfacet
   facet normal 0.000000e+00 0.000000e+00 1.000000e+00
      outer loop
         vertex 1.200000e+01 2.000000e+00 5.850000e+00
         vertex 6.513030e+00 2.090461e+00 5.850000e+00
         vertex 6.260472e+00 2.022788e+00 5.850000e+00
      endloop
   endfacet
   facet normal 0.000000e+00 0.000000e+00 1.000000e+00
      outer loop
         vertex 1.200000e+01 2.000000e+00 5.850000e+00
         vertex 6.260472e+00 2.022788e+00 5.850000e+00
         vertex 6.000000e+00 2.000000e+00 5.850000e+00
      endloop
   endfacet
   facet normal 0.000000e+00 -0.000000e+00 -1.000000e+00
      outer loop
         vertex 6.513030e+00 2.090461e+00 2.150000e+00
         vertex 1.200000e+01 2.000000e+00 2.150000e+00
         vertex 6.260472e+00 2.022788e+00 2.150000e+00
      endloop
   endfacet
   facet normal 0.000000e+00 -0.000000e+00 -1.000000e+00
      outer loop
         vertex 6.260472e+00 2.022788e+00 2.150000e+00
         vertex 1.200000e+01 2.000000e+00 2.150000e+00
         vertex 6.000000e+00 2.000000e+00 2.150000e+00
      endloop
   endfacet
   facet normal 0.000000e+00 0.000000e+00 -1.000000e+00
      outer loop
         vertex 1.200000e+01 2.000000e+00 2.150000e+00
         vertex 7.149067e+00 2.535819e+00 2.150000e+00
         vertex 7.299038e+00 2.750000e+00 2.150000e+00
      endloop
   endfacet
   facet normal 0.000000e+00 0.000000e+00 -1.000000e+00
      outer loop
         vertex 6.513030e+00 2.090461e+00 2.150000e+00
         vertex 6.750000e+00 2.200962e+00 2.150000e+00
         vertex 1.200000e+01 2.000000e+00 2.150000e+00
      endloop
   endfacet
   facet normal 0.000000e+00 0.000000e+00 -1.000000e+00
      outer loop
         vertex 1.200000e+01 2.000000e+00 2.150000e+00
         vertex 6.750000e+00 2.200962e+00 2.150000e+00
         vertex 6.964182e+00 2.350933e+00 2.150000e+00
      endloop
   endfacet
   facet normal 0.000000e+00 0.000000e+00 -1.000000e+00
      outer loop
         vertex 1.200000e+01 2.000000e+00 2.150000e+00
         vertex 6.964182e+00 2.350933e+00 2.150000e+00
         vertex 7.149067e+00 2.535819e+00 2.150000e+00
      endloop
   endfacet
   facet normal 0.000000e+00 0.000000e+00 -1.000000e+00
      outer loop
         vertex 7.299038e+00 2.750000e+00 2.150000e+00
         vertex 7.409539e+00 2.986970e+00 2.150000e+00
         vertex 1.200000e+01 2.000000e+00 2.150000e+00
      endloop
   endfacet
   facet normal 0.000000e+00 0.000000e+00 -1.000000e+00
      outer loop
         vertex 1.200000e+01 2.000000e+00 2.150000e+00
         vertex 7.409539e+00 2.986970e+00 2.150000e+00
         vertex 7.477212e+00 3.239528e+00 2.150000e+00
      endloop
   endfacet
   facet normal 0.000000e+00 0.000000e+00 -1.000000e+00
      outer loop
         vertex 1.200000e+01 2.000000e+00 2.150000e+00
         vertex 7.477212e+00 3.239528e+00 2.150000e+00
         vertex 1.200000e+01 4.500000e+00 2.150000e+00
      endloop
   endfacet
   facet normal 0.000000e+00 0.000000e+00 -1.000000e+00
      outer loop
         vertex 1.200000e+01 4.500000e+00 2.150000e+00
         vertex 7.477212e+00 3.239528e+00 2.150000e+00
         vertex 7.500000e+00 3.500000e+00 2.150000e+00
      endloop
   endfacet
   facet normal -0.000000e+00 0.000000e+00 -1.000000e+00
      outer loop
         vertex 1.200000e+01 4.500000e+00 2.150000e+00
         vertex 7.500000e+00 3.500000e+00 2.150000e+00
         vertex 7.500000e+00 4.500000e+00 2.150000e+00
      endloop
   endfacet
   facet normal -0.000000e+00 1.000000e+00 0.000000e+00
      outer loop
         vertex 7.500000e+00 4.500000e+00 5.850000e+00
         vertex 1.200000e+01 4.500000e+00 5.850000e+00
         vertex 7.500000e+00 4.500000e+00 2.150000e+00
      endloop
   endfacet
   facet normal 0.000000e+00 1.000000e+00 0.000000e+00
      outer loop
         vertex 7.500000e+00 4.500000e+00 2.150000e+00
         vertex 1.200000e+01 4.500000e+00 5.850000e+00
         vertex 1.200000e+01 4.500000e+00 2.150000e+00
      endloop
   endfacet
   facet normal 9.961946e-01 8.715635e-02 -0.000000e+00
      outer loop
         vertex 4.500000e+00 3.500000e+00 2.150000e+00
         vertex 4.500000e+00 3.500000e+00 5.850000e+00
         vertex 4.522788e+00 3.239528e+00 2.150000e+00
      endloop
   endfacet
   facet normal 9.961946e-01 8.715635e-02 -0.000000e+00
      outer loop
         vertex 4.522788e+00 3.239528e+00 2.150000e+00
         vertex 4.500000e+00 3.500000e+00 5.850000e+00
         vertex 4.522788e+00 3.239528e+00 5.850000e+00
      endloop
   endfacet
   facet normal 9.659258e-01 2.588191e-01 -0.000000e+00
      outer loop
         vertex 4.522788e+00 3.239528e+00 2.150000e+00
         vertex 4.522788e+00 3.239528e+00 5.850000e+00
         vertex 4.590461e+00 2.986970e+00 2.150000e+00
      endloop
   endfacet
   facet normal 9.659258e-01 2.588191e-01 -0.000000e+00
      outer loop
         vertex 4.590461e+00 2.986970e+00 2.150000e+00
         vertex 4.522788e+00 3.239528e+00 5.850000e+00
         vertex 4.590461e+00 2.986970e+00 5.850000e+00
      endloop
   endfacet
   facet normal 9.063077e-01 4.226185e-01 -0.000000e+00
      outer loop
         vertex 4.590461e+00 2.986970e+00 2.150000e+00
         vertex 4.590461e+00 2.986970e+00 5.850000e+00
         vertex 4.700962e+00 2.750000e+00 2.150000e+00
      endloop
   endfacet
   facet normal 9.063077e-01 4.226185e-01 -0.000000e+00
      outer loop
         vertex 4.700962e+00 2.750000e+00 2.150000e+00
         vertex 4.590461e+00 2.986970e+00 5.850000e+00
         vertex 4.700962e+00 2.750000e+00 5.850000e+00
      endloop
   endfacet
   facet normal 8.191522e-01 5.735762e-01 -0.000000e+00
      outer loop
         vertex 4.700962e+00 2.750000e+00 2.150000e+00
         vertex 4.700962e+00 2.750000e+00 5.850000e+00
         vertex 4.850933e+00 2.535819e+00 2.150000e+00
      endloop
   endfacet
   facet normal 8.191522e-01 5.735762e-01 -0.000000e+00
      outer loop
         vertex 4.850933e+00 2.535819e+00 2.150000e+00
         vertex 4.700962e+00 2.750000e+00 5.850000e+00
         vertex 4.850933e+00 2.535819e+00 5.850000e+00
      endloop
   endfacet
   facet normal 7.071068e-01 7.071068e-01 -0.000000e+00
      outer loop
         vertex 4.850933e+00 2.535819e+00 2.150000e+00
         vertex 4.850933e+00 2.535819e+00 5.850000e+00
         vertex 5.035819e+00 2.350933e+00 2.150000e+00
      endloop
   endfacet
   facet normal 7.071068e-01 7.071068e-01 -0.000000e+00
      outer loop
         vertex 5.035819e+00 2.350933e+00 2.150000e+00
         vertex 4.850933e+00 2.535819e+00 5.850000e+00
         vertex 5.035819e+00 2.350933e+00 5.850000e+00
      endloop
   endfacet
   facet normal 5.735768e-01 8.191518e-01 -0.000000e+00
      outer loop
         vertex 5.035819e+00 2.350933e+00 2.150000e+00
         vertex 5.035819e+00 2.350933e+00 5.850000e+00
         vertex 5.250000e+00 2.200962e+00 2.150000e+00
      endloop
   endfacet
   facet normal 5.735768e-01 8.191518e-01 -0.000000e+00
      outer loop
         vertex 5.250000e+00 2.200962e+00 2.150000e+00
         vertex 5.035819e+00 2.350933e+00 5.850000e+00
         vertex 5.250000e+00 2.200962e+00 5.850000e+00
      endloop
   endfacet
   facet normal 4.226178e-01 9.063080e-01 -0.000000e+00
      outer loop
         vertex 5.250000e+00 2.200962e+00 2.150000e+00
         vertex 5.250000e+00 2.200962e+00 5.850000e+00
         vertex 5.486970e+00 2.090461e+00 2.150000e+00
      endloop
   endfacet
   facet normal 4.226178e-01 9.063080e-01 -0.000000e+00
      outer loop
         vertex 5.486970e+00 2.090461e+00 2.150000e+00
         vertex 5.250000e+00 2.200962e+00 5.850000e+00
         vertex 5.486970e+00 2.090461e+00 5.850000e+00
      endloop
   endfacet
   facet normal 2.588191e-01 9.659258e-01 -0.000000e+00
      outer loop
         vertex 5.486970e+00 2.090461e+00 2.150000e+00
         vertex 5.486970e+00 2.090461e+00 5.850000e+00
         vertex 5.739528e+00 2.022788e+00 2.150000e+00
      endloop
   endfacet
   facet normal 2.588191e-01 9.659258e-01 -0.000000e+00
      outer loop
         vertex 5.739528e+00 2.022788e+00 2.150000e+00
         vertex 5.486970e+00 2.090461e+00 5.850000e+00
         vertex 5.739528e+00 2.022788e+00 5.850000e+00
      endloop
   endfacet
   facet normal 8.715546e-02 9.961947e-01 -0.000000e+00
      outer loop
         vertex 5.739528e+00 2.022788e+00 2.150000e+00
         vertex 5.739528e+00 2.022788e+00 5.850000e+00
         vertex 6.000000e+00 2.000000e+00 2.150000e+00
      endloop
   endfacet
   facet normal 8.715546e-02 9.961947e-01 -0.000000e+00
      outer loop
         vertex 6.000000e+00 2.000000e+00 2.150000e+00
         vertex 5.739528e+00 2.022788e+00 5.850000e+00
         vertex 6.000000e+00 2.000000e+00 5.850000e+00
      endloop
   endfacet
   facet normal -8.715546e-02 9.961947e-01 0.000000e+00
      outer loop
         vertex 6.000000e+00 2.000000e+00 2.150000e+00
         vertex 6.000000e+00 2.000000e+00 5.850000e+00
         vertex 6.260472e+00 2.022788e+00 2.150000e+00
      endloop
   endfacet
   facet normal -8.715546e-02 9.961947e-01 0.000000e+00
      outer loop
         vertex 6.260472e+00 2.022788e+00 2.150000e+00
         vertex 6.000000e+00 2.000000e+00 5.850000e+00
         vertex 6.260472e+00 2.022788e+00 5.850000e+00
      endloop
   endfacet
   facet normal -2.588191e-01 9.659258e-01 0.000000e+00
      outer loop
         vertex 6.260472e+00 2.022788e+00 2.150000e+00
         vertex 6.260472e+00 2.022788e+00 5.850000e+00
         vertex 6.513030e+00 2.090461e+00 2.150000e+00
      endloop
   endfacet
   facet normal -2.588191e-01 9.659258e-01 0.000000e+00
      outer loop
         vertex 6.513030e+00 2.090461e+00 2.150000e+00
         vertex 6.260472e+00 2.022788e+00 5.850000e+00
         vertex 6.513030e+00 2.090461e+00 5.850000e+00
      endloop
   endfacet
   facet normal -4.226178e-01 9.063080e-01 0.000000e+00
      outer loop
         vertex 6.513030e+00 2.090461e+00 2.150000e+00
         vertex 6.513030e+00 2.090461e+00 5.850000e+00
         vertex 6.750000e+00 2.200962e+00 2.150000e+00
      endloop
   endfacet
   facet normal -4.226178e-01 9.063080e-01 0.000000e+00
      outer loop
         vertex 6.750000e+00 2.200962e+00 2.150000e+00
         vertex 6.513030e+00 2.090461e+00 5.850000e+00
         vertex 6.750000e+00 2.200962e+00 5.850000e+00
      endloop
   endfacet
   facet normal -5.735768e-01 8.191518e-01 0.000000e+00
      outer loop
         vertex 6.750000e+00 2.200962e+00 2.150000e+00
         vertex 6.750000e+00 2.200962e+00 5.850000e+00
         vertex 6.964182e+00 2.350933e+00 2.150000e+00
      endloop
   endfacet
   facet normal -5.735768e-01 8.191518e-01 0.000000e+00
      outer loop
         vertex 6.964182e+00 2.350933e+00 2.150000e+00
         vertex 6.750000e+00 2.200962e+00 5.850000e+00
         vertex 6.964182e+00 2.350933e+00 5.850000e+00
      endloop
   endfacet
   facet normal -7.071068e-01 7.071068e-01 0.000000e+00
      outer loop
         vertex 6.964182e+00 2.350933e+00 2.150000e+00
         vertex 6.964182e+00 2.350933e+00 5.850000e+00
         vertex 7.149067e+00 2.535819e+00 2.150000e+00
      endloop
   endfacet
   facet normal -7.071068e-01 7.071068e-01 0.000000e+00
      outer loop
         vertex 7.149067e+00 2.535819e+00 2.150000e+00
         vertex 6.964182e+00 2.350933e+00 5.850000e+00
         vertex 7.149067e+00 2.535819e+00 5.850000e+00
      endloop
   endfacet
   facet normal -8.191522e-01 5.735762e-01 0.000000e+00
      outer loop
         vertex 7.149067e+00 2.535819e+00 2.150000e+00
         vertex 7.149067e+00 2.535819e+00 5.850000e+00
         vertex 7.299038e+00 2.750000e+00 2.150000e+00
      endloop
   endfacet
   facet normal -8.191522e-01 5.735762e-01 0.000000e+00
      outer loop
         vertex 7.299038e+00 2.750000e+00 2.150000e+00
         vertex 7.149067e+00 2.535819e+00 5.850000e+00
         vertex 7.299038e+00 2.750000e+00 5.850000e+00
      endloop
   endfacet
   facet normal -9.063077e-01 4.226185e-01 0.000000e+00
      outer loop
         vertex 7.299038e+00 2.750000e+00 2.150000e+00
         vertex 7.299038e+00 2.750000e+00 5.850000e+00
         vertex 7.409539e+00 2.986970e+00 2.150000e+00
      endloop
   endfacet
   facet normal -9.063077e-01 4.226185e-01 0.000000e+00
      outer loop
         vertex 7.409539e+00 2.986970e+00 2.150000e+00
         vertex 7.299038e+00 2.750000e+00 5.850000e+00
         vertex 7.409539e+00 2.986970e+00 5.850000e+00
      endloop
   endfacet
   facet normal -9.659258e-01 2.588191e-01 0.000000e+00
      outer loop
         vertex 7.409539e+00 2.986970e+00 2.150000e+00
         vertex 7.409539e+00 2.986970e+00 5.850000e+00
         vertex 7.477212e+00 3.239528e+00 2.150000e+00
      endloop
   endfacet
   facet normal -9.659258e-01 2.588191e-01 0.000000e+00
      outer loop
         vertex 7.477212e+00 3.239528e+00 2.150000e+00
         vertex 7.409539e+00 2.986970e+00 5.850000e+00
         vertex 7.477212e+00 3.239528e+00 5.850000e+00
      endloop
   endfacet
   facet normal -9.961948e-01 8.715458e-02 0.000000e+00
      outer loop
         vertex 7.477212e+00 3.239528e+00 2.150000e+00
         vertex 7.477212e+00 3.239528e+00 5.850000e+00
         vertex 7.500000e+00 3.500000e+00 2.150000e+00
      endloop
   endfacet
   facet normal -9.961948e-01 8.715458e-02 0.000000e+00
      outer loop
         vertex 7.500000e+00 3.500000e+00 2.150000e+00
         vertex 7.477212e+00 3.239528e+00 5.850000e+00
         vertex 7.500000e+00 3.500000e+00 5.850000e+00
      endloop
   endfacet
   facet normal 1.000000e+00 -0.000000e+00 0.000000e+00
      outer loop
         vertex 4.500000e+00 3.500000e+00 5.850000e+00
         vertex 4.500000e+00 3.500000e+00 2.150000e+00
         vertex 4.500000e+00 4.500000e+00 5.850000e+00
      endloop
   endfacet
   facet normal 1.000000e+00 0.000000e+00 0.000000e+00
      outer loop
         vertex 4.500000e+00 4.500000e+00 5.850000e+00
         vertex 4.500000e+00 3.500000e+00 2.150000e+00
         vertex 4.500000e+00 4.500000e+00 2.150000e+00
      endloop
   endfacet
   facet normal -1.000000e+00 -0.000000e+00 -0.000000e+00
      outer loop
         vertex 7.500000e+00 4.500000e+00 5.850000e+00
         vertex 7.500000e+00 4.500000e+00 2.150000e+00
         vertex 7.500000e+00 3.500000e+00 5.850000e+00
      endloop
   endfacet
   facet normal -1.000000e+00 0.000000e+00 0.000000e+00
      outer loop
         vertex 7.500000e+00 3.500000e+00 5.850000e+00
         vertex 7.500000e+00 4.500000e+00 2.150000e+00
         vertex 7.500000e+00 3.500000e+00 2.150000e+00
      endloop
   endfacet
endsolid